<svg height="512pt" viewBox="0 -36 512 512" width="512pt" xmlns="http://www.w3.org/2000/svg"><path d="m8.917969 10.921875h494.160156v417.296875h-494.160156zm0 0" fill="#aa6615"/><path d="m24.59375 26.59375h462.8125v385.949219h-462.8125zm0 0" fill="#bf822b"/><path d="m512 86.789062v-72.292968c0-8.003906-6.492188-14.496094-14.496094-14.496094h-72.292968c0 47.933594 38.855468 86.789062 86.789062 86.789062zm0 0" fill="#f4ca62"/><path d="m425.210938 439.140625h72.289062c8.007812 0 14.5-6.492187 14.5-14.5v-72.289063c-47.933594 0-86.789062 38.855469-86.789062 86.789063zm0 0" fill="#f4ca62"/><path d="m0 86.789062v-72.292968c0-8.003906 6.492188-14.496094 14.496094-14.496094h72.292968c0 47.933594-38.855468 86.789062-86.789062 86.789062zm0 0" fill="#f4ca62"/><path d="m86.789062 439.140625h-72.289062c-8.007812 0-14.5-6.492187-14.5-14.5v-72.289063c47.933594 0 86.789062 38.855469 86.789062 86.789063zm0 0" fill="#f4ca62"/><path d="m66.390625 68.390625h379.21875v302.355469h-379.21875zm0 0" fill="#ccd2d6"/><path d="m82.0625 84.0625h347.875v271.011719h-347.875zm0 0" fill="#fff"/><g fill="#aa6615"><path d="m445.609375 375.972656h-379.21875c-2.886719 0-5.226563-2.339844-5.226563-5.222656v-302.359375c0-2.886719 2.339844-5.222656 5.226563-5.222656h379.21875c2.886719 0 5.222656 2.335937 5.222656 5.222656v302.355469c0 2.886718-2.335937 5.226562-5.222656 5.226562zm-373.996094-10.449218h368.773438v-291.910157h-368.773438zm0 0"/><path d="m478.546875 40.328125c-7.390625 0-10.65625-9.820313-4.613281-14.171875 5.796875-4.171875 13.988281 1.277344 12.207031 8.261719-.878906 3.425781-4.054687 5.910156-7.59375 5.910156zm0 0"/><path d="m33.460938 40.328125c-7.257813 0-10.582032-9.519531-4.847657-13.988281 5.632813-4.394532 14.003907.742187 12.515625 7.761718-.757812 3.578126-4.007812 6.226563-7.667968 6.226563zm0 0"/><path d="m478.546875 410.304688c-6.972656 0-10.445313-8.851563-5.328125-13.589844 2.449219-2.265625 6.152344-2.695313 9.074219-1.117188 2.996093 1.621094 4.625 5.148438 3.917969 8.484375-.757813 3.570313-4.007813 6.222657-7.664063 6.222657zm0 0"/><path d="m33.460938 410.304688c-3.199219 0-6.152344-2.03125-7.300782-5.015626-1.179687-3.078124-.292968-6.628906 2.214844-8.777343 5.46875-4.691407 14.015625.257812 12.808594 7.300781-.636719 3.703125-3.972656 6.492188-7.722656 6.492188zm0 0"/></g></svg>