<?xml version="1.0"?>
<svg xmlns="http://www.w3.org/2000/svg" xmlns:xlink="http://www.w3.org/1999/xlink" xmlns:svgjs="http://svgjs.com/svgjs" version="1.1" width="512" height="512" x="0" y="0" viewBox="0 0 512 512" style="enable-background:new 0 0 512 512" xml:space="preserve"><g>
<g xmlns="http://www.w3.org/2000/svg">
	<g>
		<path d="M501.333,64H10.667C4.779,64,0,68.779,0,74.667v362.667C0,443.221,4.779,448,10.667,448h490.667    c5.888,0,10.667-4.779,10.667-10.667V74.667C512,68.779,507.221,64,501.333,64z M490.667,426.667H21.333V85.333h469.333V426.667z" fill="#44d2bc" data-original="#000000" style=""/>
	</g>
</g>
<g xmlns="http://www.w3.org/2000/svg">
	<g>
		<path d="M32.64,85.333h-0.213c-5.888,0-10.56,4.779-10.56,10.667s4.885,10.667,10.773,10.667S43.307,101.888,43.307,96    S38.528,85.333,32.64,85.333z" fill="#44d2bc" data-original="#000000" style=""/>
	</g>
</g>
<g xmlns="http://www.w3.org/2000/svg">
	<g>
		<path d="M32.64,128h-0.213c-5.888,0-10.56,4.779-10.56,10.667s4.885,10.667,10.773,10.667s10.667-4.779,10.667-10.667    S38.528,128,32.64,128z" fill="#44d2bc" data-original="#000000" style=""/>
	</g>
</g>
<g xmlns="http://www.w3.org/2000/svg">
	<g>
		<path d="M32.64,170.667h-0.213c-5.888,0-10.56,4.779-10.56,10.667S26.752,192,32.64,192s10.667-4.779,10.667-10.667    S38.528,170.667,32.64,170.667z" fill="#44d2bc" data-original="#000000" style=""/>
	</g>
</g>
<g xmlns="http://www.w3.org/2000/svg">
	<g>
		<path d="M32.64,213.333h-0.213c-5.888,0-10.56,4.779-10.56,10.667s4.885,10.667,10.773,10.667S43.307,229.888,43.307,224    S38.528,213.333,32.64,213.333z" fill="#44d2bc" data-original="#000000" style=""/>
	</g>
</g>
<g xmlns="http://www.w3.org/2000/svg">
	<g>
		<path d="M32.64,256h-0.213c-5.888,0-10.56,4.779-10.56,10.667s4.885,10.667,10.773,10.667s10.667-4.779,10.667-10.667    S38.528,256,32.64,256z" fill="#44d2bc" data-original="#000000" style=""/>
	</g>
</g>
<g xmlns="http://www.w3.org/2000/svg">
	<g>
		<path d="M32.64,298.667h-0.213c-5.888,0-10.56,4.779-10.56,10.667S26.752,320,32.64,320s10.667-4.779,10.667-10.667    S38.528,298.667,32.64,298.667z" fill="#44d2bc" data-original="#000000" style=""/>
	</g>
</g>
<g xmlns="http://www.w3.org/2000/svg">
	<g>
		<path d="M32.64,341.333h-0.213c-5.888,0-10.56,4.779-10.56,10.667c0,5.888,4.885,10.667,10.773,10.667S43.307,357.888,43.307,352    C43.307,346.112,38.528,341.333,32.64,341.333z" fill="#44d2bc" data-original="#000000" style=""/>
	</g>
</g>
<g xmlns="http://www.w3.org/2000/svg">
	<g>
		<path d="M32.64,384h-0.213c-5.888,0-10.56,4.779-10.56,10.667s4.885,10.667,10.773,10.667s10.667-4.779,10.667-10.667    S38.528,384,32.64,384z" fill="#44d2bc" data-original="#000000" style=""/>
	</g>
</g>
<g xmlns="http://www.w3.org/2000/svg">
	<g>
		<path d="M53.973,106.667H53.76c-5.888,0-10.56,4.779-10.56,10.667S48.085,128,53.973,128s10.667-4.779,10.667-10.667    S59.861,106.667,53.973,106.667z" fill="#44d2bc" data-original="#000000" style=""/>
	</g>
</g>
<g xmlns="http://www.w3.org/2000/svg">
	<g>
		<path d="M53.973,149.333H53.76c-5.888,0-10.56,4.779-10.56,10.667s4.885,10.667,10.773,10.667S64.64,165.888,64.64,160    S59.861,149.333,53.973,149.333z" fill="#44d2bc" data-original="#000000" style=""/>
	</g>
</g>
<g xmlns="http://www.w3.org/2000/svg">
	<g>
		<path d="M53.973,192H53.76c-5.888,0-10.56,4.779-10.56,10.667s4.885,10.667,10.773,10.667s10.667-4.779,10.667-10.667    S59.861,192,53.973,192z" fill="#44d2bc" data-original="#000000" style=""/>
	</g>
</g>
<g xmlns="http://www.w3.org/2000/svg">
	<g>
		<path d="M53.973,234.667H53.76c-5.888,0-10.56,4.779-10.56,10.667S48.085,256,53.973,256s10.667-4.779,10.667-10.667    S59.861,234.667,53.973,234.667z" fill="#44d2bc" data-original="#000000" style=""/>
	</g>
</g>
<g xmlns="http://www.w3.org/2000/svg">
	<g>
		<path d="M53.973,277.333H53.76c-5.888,0-10.56,4.779-10.56,10.667s4.885,10.667,10.773,10.667S64.64,293.888,64.64,288    S59.861,277.333,53.973,277.333z" fill="#44d2bc" data-original="#000000" style=""/>
	</g>
</g>
<g xmlns="http://www.w3.org/2000/svg">
	<g>
		<path d="M53.973,320H53.76c-5.888,0-10.56,4.779-10.56,10.667s4.885,10.667,10.773,10.667s10.667-4.779,10.667-10.667    S59.861,320,53.973,320z" fill="#44d2bc" data-original="#000000" style=""/>
	</g>
</g>
<g xmlns="http://www.w3.org/2000/svg">
	<g>
		<path d="M53.973,362.667H53.76c-5.888,0-10.56,4.779-10.56,10.667c0,5.888,4.885,10.667,10.773,10.667s10.667-4.779,10.667-10.667    C64.64,367.445,59.861,362.667,53.973,362.667z" fill="#44d2bc" data-original="#000000" style=""/>
	</g>
</g>
<g xmlns="http://www.w3.org/2000/svg">
	<g>
		<path d="M53.973,405.333H53.76c-5.888,0-10.56,4.779-10.56,10.667c0,5.888,4.885,10.667,10.773,10.667S64.64,421.888,64.64,416    C64.64,410.112,59.861,405.333,53.973,405.333z" fill="#44d2bc" data-original="#000000" style=""/>
	</g>
</g>
<g xmlns="http://www.w3.org/2000/svg">
	<g>
		<path d="M75.307,85.333h-0.213c-5.888,0-10.56,4.779-10.56,10.667s4.885,10.667,10.773,10.667S85.973,101.888,85.973,96    S81.195,85.333,75.307,85.333z" fill="#44d2bc" data-original="#000000" style=""/>
	</g>
</g>
<g xmlns="http://www.w3.org/2000/svg">
	<g>
		<path d="M75.307,128h-0.213c-5.888,0-10.56,4.779-10.56,10.667s4.885,10.667,10.773,10.667s10.667-4.779,10.667-10.667    S81.195,128,75.307,128z" fill="#44d2bc" data-original="#000000" style=""/>
	</g>
</g>
<g xmlns="http://www.w3.org/2000/svg">
	<g>
		<path d="M75.307,170.667h-0.213c-5.888,0-10.56,4.779-10.56,10.667S69.419,192,75.307,192s10.667-4.779,10.667-10.667    S81.195,170.667,75.307,170.667z" fill="#44d2bc" data-original="#000000" style=""/>
	</g>
</g>
<g xmlns="http://www.w3.org/2000/svg">
	<g>
		<path d="M75.307,213.333h-0.213c-5.888,0-10.56,4.779-10.56,10.667s4.885,10.667,10.773,10.667S85.973,229.888,85.973,224    S81.195,213.333,75.307,213.333z" fill="#44d2bc" data-original="#000000" style=""/>
	</g>
</g>
<g xmlns="http://www.w3.org/2000/svg">
	<g>
		<path d="M75.307,256h-0.213c-5.888,0-10.56,4.779-10.56,10.667s4.885,10.667,10.773,10.667s10.667-4.779,10.667-10.667    S81.195,256,75.307,256z" fill="#44d2bc" data-original="#000000" style=""/>
	</g>
</g>
<g xmlns="http://www.w3.org/2000/svg">
	<g>
		<path d="M75.307,298.667h-0.213c-5.888,0-10.56,4.779-10.56,10.667S69.419,320,75.307,320s10.667-4.779,10.667-10.667    S81.195,298.667,75.307,298.667z" fill="#44d2bc" data-original="#000000" style=""/>
	</g>
</g>
<g xmlns="http://www.w3.org/2000/svg">
	<g>
		<path d="M75.307,341.333h-0.213c-5.888,0-10.56,4.779-10.56,10.667c0,5.888,4.885,10.667,10.773,10.667S85.973,357.888,85.973,352    C85.973,346.112,81.195,341.333,75.307,341.333z" fill="#44d2bc" data-original="#000000" style=""/>
	</g>
</g>
<g xmlns="http://www.w3.org/2000/svg">
	<g>
		<path d="M75.307,384h-0.213c-5.888,0-10.56,4.779-10.56,10.667s4.885,10.667,10.773,10.667s10.667-4.779,10.667-10.667    S81.195,384,75.307,384z" fill="#44d2bc" data-original="#000000" style=""/>
	</g>
</g>
<g xmlns="http://www.w3.org/2000/svg">
	<g>
		<path d="M96.64,106.667h-0.213c-5.888,0-10.56,4.779-10.56,10.667S90.752,128,96.64,128s10.667-4.779,10.667-10.667    S102.528,106.667,96.64,106.667z" fill="#44d2bc" data-original="#000000" style=""/>
	</g>
</g>
<g xmlns="http://www.w3.org/2000/svg">
	<g>
		<path d="M96.64,149.333h-0.213c-5.888,0-10.56,4.779-10.56,10.667s4.885,10.667,10.773,10.667s10.667-4.779,10.667-10.667    S102.528,149.333,96.64,149.333z" fill="#44d2bc" data-original="#000000" style=""/>
	</g>
</g>
<g xmlns="http://www.w3.org/2000/svg">
	<g>
		<path d="M96.64,192h-0.213c-5.888,0-10.56,4.779-10.56,10.667s4.885,10.667,10.773,10.667s10.667-4.779,10.667-10.667    S102.528,192,96.64,192z" fill="#44d2bc" data-original="#000000" style=""/>
	</g>
</g>
<g xmlns="http://www.w3.org/2000/svg">
	<g>
		<path d="M96.64,234.667h-0.213c-5.888,0-10.56,4.779-10.56,10.667S90.752,256,96.64,256s10.667-4.779,10.667-10.667    S102.528,234.667,96.64,234.667z" fill="#44d2bc" data-original="#000000" style=""/>
	</g>
</g>
<g xmlns="http://www.w3.org/2000/svg">
	<g>
		<path d="M96.64,277.333h-0.213c-5.888,0-10.56,4.779-10.56,10.667s4.885,10.667,10.773,10.667s10.667-4.779,10.667-10.667    S102.528,277.333,96.64,277.333z" fill="#44d2bc" data-original="#000000" style=""/>
	</g>
</g>
<g xmlns="http://www.w3.org/2000/svg">
	<g>
		<path d="M96.64,320h-0.213c-5.888,0-10.56,4.779-10.56,10.667s4.885,10.667,10.773,10.667s10.667-4.779,10.667-10.667    S102.528,320,96.64,320z" fill="#44d2bc" data-original="#000000" style=""/>
	</g>
</g>
<g xmlns="http://www.w3.org/2000/svg">
	<g>
		<path d="M96.64,362.667h-0.213c-5.888,0-10.56,4.779-10.56,10.667c0,5.888,4.885,10.667,10.773,10.667s10.667-4.779,10.667-10.667    C107.307,367.445,102.528,362.667,96.64,362.667z" fill="#44d2bc" data-original="#000000" style=""/>
	</g>
</g>
<g xmlns="http://www.w3.org/2000/svg">
	<g>
		<path d="M96.64,405.333h-0.213c-5.888,0-10.56,4.779-10.56,10.667c0,5.888,4.885,10.667,10.773,10.667s10.667-4.779,10.667-10.667    C107.307,410.112,102.528,405.333,96.64,405.333z" fill="#44d2bc" data-original="#000000" style=""/>
	</g>
</g>
<g xmlns="http://www.w3.org/2000/svg">
	<g>
		<path d="M117.973,85.333h-0.213c-5.888,0-10.56,4.779-10.56,10.667s4.885,10.667,10.773,10.667S128.64,101.888,128.64,96    S123.861,85.333,117.973,85.333z" fill="#44d2bc" data-original="#000000" style=""/>
	</g>
</g>
<g xmlns="http://www.w3.org/2000/svg">
	<g>
		<path d="M117.973,128h-0.213c-5.888,0-10.56,4.779-10.56,10.667s4.885,10.667,10.773,10.667s10.667-4.779,10.667-10.667    S123.861,128,117.973,128z" fill="#44d2bc" data-original="#000000" style=""/>
	</g>
</g>
<g xmlns="http://www.w3.org/2000/svg">
	<g>
		<path d="M117.973,170.667h-0.213c-5.888,0-10.56,4.779-10.56,10.667S112.085,192,117.973,192s10.667-4.779,10.667-10.667    S123.861,170.667,117.973,170.667z" fill="#44d2bc" data-original="#000000" style=""/>
	</g>
</g>
<g xmlns="http://www.w3.org/2000/svg">
	<g>
		<path d="M117.973,213.333h-0.213c-5.888,0-10.56,4.779-10.56,10.667s4.885,10.667,10.773,10.667S128.64,229.888,128.64,224    S123.861,213.333,117.973,213.333z" fill="#44d2bc" data-original="#000000" style=""/>
	</g>
</g>
<g xmlns="http://www.w3.org/2000/svg">
	<g>
		<path d="M117.973,256h-0.213c-5.888,0-10.56,4.779-10.56,10.667s4.885,10.667,10.773,10.667s10.667-4.779,10.667-10.667    S123.861,256,117.973,256z" fill="#44d2bc" data-original="#000000" style=""/>
	</g>
</g>
<g xmlns="http://www.w3.org/2000/svg">
	<g>
		<path d="M117.973,298.667h-0.213c-5.888,0-10.56,4.779-10.56,10.667S112.085,320,117.973,320s10.667-4.779,10.667-10.667    S123.861,298.667,117.973,298.667z" fill="#44d2bc" data-original="#000000" style=""/>
	</g>
</g>
<g xmlns="http://www.w3.org/2000/svg">
	<g>
		<path d="M117.973,341.333h-0.213c-5.888,0-10.56,4.779-10.56,10.667c0,5.888,4.885,10.667,10.773,10.667    S128.64,357.888,128.64,352C128.64,346.112,123.861,341.333,117.973,341.333z" fill="#44d2bc" data-original="#000000" style=""/>
	</g>
</g>
<g xmlns="http://www.w3.org/2000/svg">
	<g>
		<path d="M117.973,384h-0.213c-5.888,0-10.56,4.779-10.56,10.667s4.885,10.667,10.773,10.667s10.667-4.779,10.667-10.667    S123.861,384,117.973,384z" fill="#44d2bc" data-original="#000000" style=""/>
	</g>
</g>
<g xmlns="http://www.w3.org/2000/svg">
	<g>
		<path d="M160.64,106.667h-0.213c-5.888,0-10.56,4.779-10.56,10.667S154.752,128,160.64,128s10.667-4.779,10.667-10.667    S166.528,106.667,160.64,106.667z" fill="#44d2bc" data-original="#000000" style=""/>
	</g>
</g>
<g xmlns="http://www.w3.org/2000/svg">
	<g>
		<path d="M160.64,192h-0.213c-5.888,0-10.56,4.779-10.56,10.667s4.885,10.667,10.773,10.667s10.667-4.779,10.667-10.667    S166.528,192,160.64,192z" fill="#44d2bc" data-original="#000000" style=""/>
	</g>
</g>
<g xmlns="http://www.w3.org/2000/svg">
	<g>
		<path d="M160.64,277.333h-0.213c-5.888,0-10.56,4.779-10.56,10.667s4.885,10.667,10.773,10.667s10.667-4.779,10.667-10.667    S166.528,277.333,160.64,277.333z" fill="#44d2bc" data-original="#000000" style=""/>
	</g>
</g>
<g xmlns="http://www.w3.org/2000/svg">
	<g>
		<path d="M160.64,362.667h-0.213c-5.888,0-10.56,4.779-10.56,10.667c0,5.888,4.885,10.667,10.773,10.667    s10.667-4.779,10.667-10.667C171.307,367.445,166.528,362.667,160.64,362.667z" fill="#44d2bc" data-original="#000000" style=""/>
	</g>
</g>
<g xmlns="http://www.w3.org/2000/svg">
	<g>
		<path d="M288.64,106.667h-0.213c-5.888,0-10.56,4.779-10.56,10.667S282.752,128,288.64,128s10.667-4.779,10.667-10.667    S294.528,106.667,288.64,106.667z" fill="#44d2bc" data-original="#000000" style=""/>
	</g>
</g>
<g xmlns="http://www.w3.org/2000/svg">
	<g>
		<path d="M352.64,128h-0.213c-5.888,0-10.56,4.779-10.56,10.667s4.885,10.667,10.773,10.667c5.888,0,10.667-4.779,10.667-10.667    S358.528,128,352.64,128z" fill="#44d2bc" data-original="#000000" style=""/>
	</g>
</g>
<g xmlns="http://www.w3.org/2000/svg">
	<g>
		<path d="M352.64,213.333h-0.213c-5.888,0-10.56,4.779-10.56,10.667s4.885,10.667,10.773,10.667    c5.888,0,10.667-4.779,10.667-10.667S358.528,213.333,352.64,213.333z" fill="#44d2bc" data-original="#000000" style=""/>
	</g>
</g>
<g xmlns="http://www.w3.org/2000/svg">
	<g>
		<path d="M352.64,298.667h-0.213c-5.888,0-10.56,4.779-10.56,10.667S346.752,320,352.64,320c5.888,0,10.667-4.779,10.667-10.667    S358.528,298.667,352.64,298.667z" fill="#44d2bc" data-original="#000000" style=""/>
	</g>
</g>
<g xmlns="http://www.w3.org/2000/svg">
	<g>
		<path d="M352.64,384h-0.213c-5.888,0-10.56,4.779-10.56,10.667s4.885,10.667,10.773,10.667c5.888,0,10.667-4.779,10.667-10.667    S358.528,384,352.64,384z" fill="#44d2bc" data-original="#000000" style=""/>
	</g>
</g>
<g xmlns="http://www.w3.org/2000/svg">
	<g>
		<path d="M416.64,106.667h-0.213c-5.888,0-10.56,4.779-10.56,10.667S410.752,128,416.64,128c5.888,0,10.667-4.779,10.667-10.667    S422.528,106.667,416.64,106.667z" fill="#44d2bc" data-original="#000000" style=""/>
	</g>
</g>
<g xmlns="http://www.w3.org/2000/svg">
	<g>
		<path d="M416.64,192h-0.213c-5.888,0-10.56,4.779-10.56,10.667s4.885,10.667,10.773,10.667c5.888,0,10.667-4.779,10.667-10.667    S422.528,192,416.64,192z" fill="#44d2bc" data-original="#000000" style=""/>
	</g>
</g>
<g xmlns="http://www.w3.org/2000/svg">
	<g>
		<path d="M416.64,277.333h-0.213c-5.888,0-10.56,4.779-10.56,10.667s4.885,10.667,10.773,10.667    c5.888,0,10.667-4.779,10.667-10.667S422.528,277.333,416.64,277.333z" fill="#44d2bc" data-original="#000000" style=""/>
	</g>
</g>
<g xmlns="http://www.w3.org/2000/svg">
	<g>
		<path d="M416.64,362.667h-0.213c-5.888,0-10.56,4.779-10.56,10.667c0,5.888,4.885,10.667,10.773,10.667    c5.888,0,10.667-4.779,10.667-10.667C427.307,367.445,422.528,362.667,416.64,362.667z" fill="#44d2bc" data-original="#000000" style=""/>
	</g>
</g>
<g xmlns="http://www.w3.org/2000/svg">
	<g>
		<path d="M288.64,170.667h-0.213c-5.888,0-10.56,4.779-10.56,10.667S282.752,192,288.64,192s10.667-4.779,10.667-10.667    S294.528,170.667,288.64,170.667z" fill="#44d2bc" data-original="#000000" style=""/>
	</g>
</g>
<g xmlns="http://www.w3.org/2000/svg">
	<g>
		<path d="M288.64,234.667h-0.213c-5.888,0-10.56,4.779-10.56,10.667S282.752,256,288.64,256s10.667-4.779,10.667-10.667    S294.528,234.667,288.64,234.667z" fill="#44d2bc" data-original="#000000" style=""/>
	</g>
</g>
<g xmlns="http://www.w3.org/2000/svg">
	<g>
		<path d="M288.64,298.667h-0.213c-5.888,0-10.56,4.779-10.56,10.667S282.752,320,288.64,320s10.667-4.779,10.667-10.667    S294.528,298.667,288.64,298.667z" fill="#44d2bc" data-original="#000000" style=""/>
	</g>
</g>
<g xmlns="http://www.w3.org/2000/svg">
	<g>
		<path d="M288.64,362.667h-0.213c-5.888,0-10.56,4.779-10.56,10.667c0,5.888,4.885,10.667,10.773,10.667    s10.667-4.779,10.667-10.667C299.307,367.445,294.528,362.667,288.64,362.667z" fill="#44d2bc" data-original="#000000" style=""/>
	</g>
</g>
<g xmlns="http://www.w3.org/2000/svg">
	<g>
		<path d="M245.973,128h-0.213c-5.888,0-10.56,4.779-10.56,10.667s4.885,10.667,10.773,10.667s10.667-4.779,10.667-10.667    S251.861,128,245.973,128z" fill="#44d2bc" data-original="#000000" style=""/>
	</g>
</g>
<g xmlns="http://www.w3.org/2000/svg">
	<g>
		<path d="M245.973,192h-0.213c-5.888,0-10.56,4.779-10.56,10.667s4.885,10.667,10.773,10.667s10.667-4.779,10.667-10.667    S251.861,192,245.973,192z" fill="#44d2bc" data-original="#000000" style=""/>
	</g>
</g>
<g xmlns="http://www.w3.org/2000/svg">
	<g>
		<path d="M245.973,256h-0.213c-5.888,0-10.56,4.779-10.56,10.667s4.885,10.667,10.773,10.667s10.667-4.779,10.667-10.667    S251.861,256,245.973,256z" fill="#44d2bc" data-original="#000000" style=""/>
	</g>
</g>
<g xmlns="http://www.w3.org/2000/svg">
	<g>
		<path d="M245.973,320h-0.213c-5.888,0-10.56,4.779-10.56,10.667s4.885,10.667,10.773,10.667s10.667-4.779,10.667-10.667    S251.861,320,245.973,320z" fill="#44d2bc" data-original="#000000" style=""/>
	</g>
</g>
<g xmlns="http://www.w3.org/2000/svg">
	<g>
		<path d="M245.973,384h-0.213c-5.888,0-10.56,4.779-10.56,10.667s4.885,10.667,10.773,10.667s10.667-4.779,10.667-10.667    S251.861,384,245.973,384z" fill="#44d2bc" data-original="#000000" style=""/>
	</g>
</g>
<g xmlns="http://www.w3.org/2000/svg">
	<g>
		<path d="M203.307,85.333h-0.213c-5.888,0-10.56,4.779-10.56,10.667s4.885,10.667,10.773,10.667s10.667-4.779,10.667-10.667    S209.195,85.333,203.307,85.333z" fill="#44d2bc" data-original="#000000" style=""/>
	</g>
</g>
<g xmlns="http://www.w3.org/2000/svg">
	<g>
		<path d="M203.307,149.333h-0.213c-5.888,0-10.56,4.779-10.56,10.667s4.885,10.667,10.773,10.667s10.667-4.779,10.667-10.667    S209.195,149.333,203.307,149.333z" fill="#44d2bc" data-original="#000000" style=""/>
	</g>
</g>
<g xmlns="http://www.w3.org/2000/svg">
	<g>
		<path d="M203.307,213.333h-0.213c-5.888,0-10.56,4.779-10.56,10.667s4.885,10.667,10.773,10.667s10.667-4.779,10.667-10.667    S209.195,213.333,203.307,213.333z" fill="#44d2bc" data-original="#000000" style=""/>
	</g>
</g>
<g xmlns="http://www.w3.org/2000/svg">
	<g>
		<path d="M203.307,277.333h-0.213c-5.888,0-10.56,4.779-10.56,10.667s4.885,10.667,10.773,10.667s10.667-4.779,10.667-10.667    S209.195,277.333,203.307,277.333z" fill="#44d2bc" data-original="#000000" style=""/>
	</g>
</g>
<g xmlns="http://www.w3.org/2000/svg">
	<g>
		<path d="M203.307,341.333h-0.213c-5.888,0-10.56,4.779-10.56,10.667c0,5.888,4.885,10.667,10.773,10.667    s10.667-4.779,10.667-10.667C213.973,346.112,209.195,341.333,203.307,341.333z" fill="#44d2bc" data-original="#000000" style=""/>
	</g>
</g>
<g xmlns="http://www.w3.org/2000/svg">
	<g>
		<path d="M203.307,405.333h-0.213c-5.888,0-10.56,4.779-10.56,10.667c0,5.888,4.885,10.667,10.773,10.667    s10.667-4.779,10.667-10.667C213.973,410.112,209.195,405.333,203.307,405.333z" fill="#44d2bc" data-original="#000000" style=""/>
	</g>
</g>
<g xmlns="http://www.w3.org/2000/svg">
</g>
<g xmlns="http://www.w3.org/2000/svg">
</g>
<g xmlns="http://www.w3.org/2000/svg">
</g>
<g xmlns="http://www.w3.org/2000/svg">
</g>
<g xmlns="http://www.w3.org/2000/svg">
</g>
<g xmlns="http://www.w3.org/2000/svg">
</g>
<g xmlns="http://www.w3.org/2000/svg">
</g>
<g xmlns="http://www.w3.org/2000/svg">
</g>
<g xmlns="http://www.w3.org/2000/svg">
</g>
<g xmlns="http://www.w3.org/2000/svg">
</g>
<g xmlns="http://www.w3.org/2000/svg">
</g>
<g xmlns="http://www.w3.org/2000/svg">
</g>
<g xmlns="http://www.w3.org/2000/svg">
</g>
<g xmlns="http://www.w3.org/2000/svg">
</g>
<g xmlns="http://www.w3.org/2000/svg">
</g>
</g></svg>
